<mxfile host="app.diagrams.net" agent="Mozilla/5.0 (Windows NT 10.0; Win64; x64) AppleWebKit/537.36 (KHTML, like Gecko) Chrome/133.0.0.0 Safari/537.36" version="26.0.14">
  <diagram name="Page-1" id="tbptsv2nRCmoPnRynWtP">
    <mxGraphModel dx="1050" dy="565" grid="1" gridSize="10" guides="1" tooltips="1" connect="1" arrows="1" fold="1" page="1" pageScale="1" pageWidth="827" pageHeight="1169" math="0" shadow="0">
      <root>
        <mxCell id="0" />
        <mxCell id="1" parent="0" />
        <mxCell id="bwoUUbvKXOS5pOX4SVc_-79" value="" style="group" vertex="1" connectable="0" parent="1">
          <mxGeometry x="29.99999999999999" y="140" width="1061.05" height="530" as="geometry" />
        </mxCell>
        <mxCell id="bwoUUbvKXOS5pOX4SVc_-68" value="" style="group" vertex="1" connectable="0" parent="bwoUUbvKXOS5pOX4SVc_-79">
          <mxGeometry width="810" height="530" as="geometry" />
        </mxCell>
        <mxCell id="bwoUUbvKXOS5pOX4SVc_-67" value="" style="rounded=1;whiteSpace=wrap;html=1;fillColor=#dae8fc;strokeColor=#6c8ebf;" vertex="1" parent="bwoUUbvKXOS5pOX4SVc_-68">
          <mxGeometry width="810" height="530" as="geometry" />
        </mxCell>
        <mxCell id="bwoUUbvKXOS5pOX4SVc_-39" value="" style="shape=image;verticalLabelPosition=bottom;labelBackgroundColor=default;verticalAlign=top;aspect=fixed;imageAspect=0;image=data:image/png,iVBORw0KGgoAAAANSUhEUgAAAUoAAAB/CAYAAACJ6YuvAAAABGdBTUEAALGPC/xhBQAAACBjSFJNAAB6JgAAgIQAAPoAAACA6AAAdTAAAOpgAAA6mAAAF3CculE8AAAABmJLR0QAAAAAAAD5Q7t/AAAACXBIWXMAACxLAAAsSwGlPZapAAAAB3RJTUUH6AsJEjcAs76a/gAAOoRJREFUeNrtnXl8VPW5/9/PmZnsYUlYBFmCoqiAu7IoRUWoWp2cqLXXWq+33rrU1ra/qq0Vra0Wu1jb61rUqm21laqYkwBapSKuSNW6gBtWARFEIGwh+8x5fn98T2AymUlmsk7wfHjNK2Qyc5bv8jnP/gjAp5PHZCs6BEAgCrgqEgVcAVdVo5j3owhRQVzXVXfU8jWKj76Fl1ZkIShTJzb5g+HDR2qQdVNKgoJcrarf8IjSBaIeUTYJRFS1CWgUaFShQZB6Va0DaoEaRGpQrQaqEalGdYf3sxqhWpRaNZ9taGhqahr7+nqfYHsDy1aOQfVnwA7gOqZO3OEPig8f7SOIElTRI0RkXAsG9X4qICKt3m9+T7331LyJJ4VGFJpA6kFrgWpvc27NDoU2rZtc8jnwmcAG4DOFTcBWgV0jXlnT4E9LN5EkzEVkFqrbgfuAt/yB8eEjBaKMBtyGgGvNUXQUytGxpBhLjElF0jjiBCxEsgSyEPJBipEEx1HFU+frEHagbAHWr5syZg3oR8CHwGpUNoJuH/nKmog/XR0myRJgLjDLeyfqD4oPH2mo3s3/WTe5ZCJwj4hMzoQLMxKpbkdlA+gqhBXAW4K8D7p+xLI1Nf70pYCXV4xAuBvktJiH1GbgJKZOXOkPkA8faRClR5bjPbKcmokXq8Zmugn0A5DXFF4W9C2Q9SOWrfadE61JcjhwJ2ATqymobgJOYOrE9/xB8uEjTaL0yPIQjC1rmmTiFXtGUe9HI/Ap6OvAP4EXgI9GLFvT6KvbK4YDtwNntp5m/QyYzpSJH/pbwIePDhClR5YHAHchcrL0mVtRxTiHXgFZACwZsWz1ui8oSe4D3AGclWSK14N+iSkTP/a3gA8fHSRKjyzHAHeBnCJ9hC11zw1FgVXAQtBHQd78wqjmy1YOBm4FPbeN6V1rJMoJa/0t4MNHJ4jSI8vRCH8Q5NS+e4u6CeRJTDjM8hHLVu+9avmylYOAW4Dz25xb1f9gbJTr/S3gw0f7sNr648hX1qwFLlW0QrWvxojLEOACwAHmfjql5Oj108bIXjeTy1YWp0SSBk34IUI+fHQNUQKMXLbmE5RvA49o32VLgCLgmyCORrju0ylj9tl7SHLFQODmFEnSEKXix6X68NFVROlJlp8B3wPm9XGyBNgX+JnCI59OGXPSuqklfVu6fHlFf5SbUL0gRZI0RCn44VQ+fHQlUXpk+TnwA+BvewFZisA04G+4cvmnU8bk9lmShDnARYhYqd89DYivevvw0eVE6ZHlJo8sH0Bx94L7H4rwG4VfrptcMrCPqdv9EOYgXIpIIK3vKnWoT5Q+fHQLUXpkuUXgCkXv0b3AISCQjerlIvJ/G6aNHdI3JMmVBcANwCWQJkka1OGqT5Q+fHQXUQKMeGXNduBqVO9WdG8gSws4H+TWbWdNHprZkuTKPITrULkMJNjBo9T6qrcPH91MlJ5kuQPhJ8CdivZtD6oIqipuJPJfkZra25out4dlLEnCdcAPEEKdOFINwb3CdOLDR2YTJcDIZWt2ArNRblHVPh3ILYYsaaypPad+2/Y79ZrzRmYYSeYC1wI/RMnq8HGMG66aSYf6xZN9+OgJovTIchfGXvYbVe3TRXdFBLcpQt2WrWXRXbVz9cfnlmTEhb30dg6qPwY1JNmZgCbxiNKHDx89R5SeGl4L3OSRZX1fH5TGHdXUb91+GurO1au+NqZXL+blFdmI/BD4MUg2nY36NJFdfgsIHz56mig9sqzzyPImVa3t6yp47aYtuI2RLwN361XnjO0ddXtFNsIVCNciktOFR/aJ0oeP3iBKjyzrgV8D16vqrj4tVe6qoWFnNcBM4I961TkH9zBJZmFiVq8F6bqAeMEFtvtL34ePXiJKjywbgVuBn6rqLvqgy0BEUNelYdsOTBKSTPfIckLPkOTKEMhlINd1KUkCKE2+ROnDR7ryRTdh3eSSEMJlwA2C9OtrA6OqZBXkUzxhHIFQcySOvgJcLDc/sqLbTvzKyqBXhGQOSmGXz5DqTmAWUycu747Lt+1wEaYASRRkg+NU9FkHn22HBwkcDTQoLHecylqfMnyJsqslyyaEO4Efq+q2vjg4kfoGovUt9vlk4D698pwjupEkL+02kjSoA3Z2F7EAfwaWmpdeZNtn9OGiI1IK4gCPAkf4dOETZfeQ5ctrIq6r9wJXqGpVn5Mqo1EidfVxArgcAzygV54zqUtP9uKbAVS/1c0kCbCL7gsPmi7wZUH2FWQU8N8gRX14fxQA2Wp+5vl04RNlt2H08rVRVP/c18hSMN7vlkTZ/Ec5DJH79KqvTemSky1728IKXIByE9CP7pXBdgBd3urXtsMhoAwkpOy2TE8EpvTh/aExP/0A/S8wgj1xkpHL17qfTBr9oIhEVfUWEcn84hMCuBBtbIrtxROL8RgHzyVy8yMvdvg8L79tgfw3cDMiPVHBqMpTv7saBwAnev9/RtFxgoxUtMy2w/9wnMpIAnK1BEJApNypjNp2OAAUe9JbA1DlOJWN7RB0PjAAyAJqgW0pfCckUKSQi6n2vi0F+6MClNnh/mrO53rfaze6o8wOFyoM9JbRTsep3OZTTx8zwvTkydZOGi2WyFnArSIyPOPFCVfJHVxE0UFjkaQd1vQD4DK5+ZElaZ/glbctVM4HftdjKqrqQygXcNzELs31tu3wFcDNgtQpfBUoE/iWomuBkx2n8j+xny+1bRHciwU5U9HlAk8D3wSOVejnkfk7AveBPFXuVERbkk9pkaLnGimWMR5R7gLeE3hIkQWOU9EU952QoqcA3xCYoFAoxlGzFlgg8Ldyp3Lznnsq/Z7ArYrWAd8CRgjYCsM9olwj8AjwUHkCwiyzS4eCXqBwOjDS0+A+F2PDvb/cqXzfpyBf9U6khmt0V3Q+cJmqrs94ZUZAXbc5myXZh8YB9+pV53w5PUnyXUGtrwG/7TmSBOCzbiDJ/kCpIKLwlpj+6pUK9R5BzEo8unKi97fvA4+AXKgwARgpyDhBzgR5EDivLMYpVGaHh4DOFeQ2kBnAUCOFylhBykD+ZBxJYSuGtLKAKwV5SJBzFA4B2UfNd2YI/B54oMwOj05wrSHgRkF+rcgUkJGCjBFz/bcBN9h2OLflmJSOAu4H+TXINCMpS3/Pxn0VyCNldulkn4J8okyIkpXrdOQrayoQLlPRzO+7nVIxd9kPmKtXnXNKSsd8/T1B3LOA34MM6uE7+rQbjnkMcKQZKV1Q7lRUA8uMRCgWYNt2uCDB96KGMaWfIsUKDwJfB85R9HY19tQiRa9TZGwM358H8lVT4k/vAU4BTgC+qvAvoBD4ERCbUXUy8BNF+6nRAn6IkfTOU/iHp1x9BbjKs7fGMLoEgf3USL3fAj1L0WsVVns22Uu9a9hNygLXgJ6maDUmY+1k4CTgCkU+ByYq+ivbDg/2aSjzEeytE49ctqZy3ZSSJlW9Q0T22wusGCWgd+tV53yHd51FsqgxMcO+/o7QGD3TSCI6tIetH1GgS1vU2nZpANQWJF/Rz4FFhsykStCFCkeJUacPB9qy5T4A/LDZVmjbpQ6wReF6j/BONw8Ws24VfRcjuV4ZYydcYdulKPxdYJTCJGCVbYdDin5DkEJgC3CZ41QuibmHpQqPCzJJ0VJMN8vVcdf3NOj5jlO5yfvdse3SFQoPmjhhPavMDi8odyojik4QOEvN3N4Len2Mjfbftl3aoOZejvMI9GGfinyJsi2yfBK4SFU/zFj6s9IZIhmFMpeD7bP0R+e0ZsDlLwmNrg3cjjKsh0kS0FpgQxcfcwTgmR3kBeADgArHUWAhxnnU35glw1Zii4BuA73fcSp2O1QcpyIC/B3YKGacJtl2uPnBfjvGcfR9x6ncZdvhoG2H+9l2eBRoIWhUzeB60roMBDnU+/+/BHkp9vyOU7EBuFnhGZDnMY6k2OtzgYdjSLL5L8+CNicfHKxGkgUTbzsIdCfoI60dWfo46BpPUp1W1qdjTX2JsmfI8pU1S9ZNLrlIVe8RkQMzS+0GCQRMK7KUuVL2Bb0DlaD+6Gt/l9/8fY9kGe13GnAbwjB6Z2tsBz7v4mOeLMaZ0ijwaLlTGUsybxqpT2zQUz2JMAFRyyaMQyV+AjYaU4EMB4ZhHDYRx6msL7PDAYVpth2eDhwsMEJhH2CQQK42a80G/UAHmF91Tdw1ehYWeVxEnwCiCbzmTUkk8Tpgk7dU8oBs77RexSkNABeW2aV2HPFmYWIzAUYpEgIafTryibI9snzOI8u5InJws21QPPugekSlIj3LLwJWMNiGxzvpF4cCt6KIXnLC3+XupS4vrzgFuBMY0Yvy8eegW7tO7Q7nArbp26PbFCmyW5KCAls9L9KBwPREaqZAg5eDTgKC8qRMyQYCng3wMNCfC8wEyfOCHGtAq4BP1ajqsb2EAqZthhIvLTajosJRkodNJYmjFCBhpXgvOF3ygYs18feaDxgCtXwq8okyVbJ8ft3kkgtRnSuqh+3KLqCqYBCiysDarRQ2VGO5Lq5YPUKYzR15A1kd7rgwBNXbooWDQ3kvvbWlVuROYHQvi8jr6Npg84nAVG/zD/IeBAkoQRAIeTGVjztxEp2iQYRAkvXZXF6uEYjYdng48AeQKQpbgb8BzwAfe9LyOJDHQfNjzhDF5J6DkeYSosw4cdxyp7Kz/YS8LAXdBdzlScySgHwBecuXJn2iTJcsX9l49L4XPjX+tIf/esz5B340aCyiyrCdG5i0Zhkz33+agze+S8CNoD1AmCJCIDvL218dOsQgFev2c9ataPzT6MMHZcAQf8TUiU1dJE0KEBZTAEOBnZJYulJMYHcu8CVDZLwdP04YtXlz3AwMxsQsAmwEbQBOVnSyR0Y/AvmTExNjadulx4hJO4zFLkx++3BghG2HQ45TGR9jeSropcBG2w5f19oemd4DyXPkCLDIcSqej//E6aUzJSBZVoWzyG/y1geQcSL/6F98Ovjyr/4h94X9p/FZv2Fs6D+c10YdzZ1fupyLz72fX82azZriMVjqIqrdGooplkUgO7vjyWsiBNXtd/Hqfw8a2FjXuwOrKEhXBjgPBk4HQdG31NggT0jwOlHhKjVS01DgtDPsUyXBsc6PD8sBtUH39f7/muNUusAQj4AagZWxJFlmlxYKnJtAANgKvOMx17ESV+DCtsPFiv4YJGzuabdTpqMT/6pHzPnAeWVx91Vml04KSe6jQmChbYdn+TTkS5RpIX+Rewouc6NWYKSlMbqKlzy8uWAwD0y+kJf2O57Lnr+DU957gqAbwRWrWyRLKxQ0EmXnNg2ja3cwqKGWbVl59F7KsNYCXRldMA3j6QXkccepWJZc+iz9DLhIkMMUDQcI3a3I9uaxEERALwOybTv8DzG2yeNAvgMEFD4BWegd7l2gXkz2zrVldumtGLvkUExmTzj+/I5T2WjbpfMUThNkGOhdth2+DVglMBDkfIXjzWNXnhTobHzvG8CTgnwN9DxgU5kdfhSkAfRo4Ccg441UrLf7NORLlCmjYJF7MvAHgdGSwKAjgKXmtWrIgVx7xk3cesIP2ZnTD8t1u4V+AtnZWKHOP0uaJECjFejtId4MfNJFancIOEuQLM+BsrBtYZYtwEJvjo4CJlc45Rrz9xpFGkC+J1DhHe9nwGA1lY5+BXjSsDwP8hdFXJDTgUrgOYEnFC5QdKsXzhO/vhdhgtgbQI4C/gQsBhyMFBoAngP9TblT0Riz7PD+Ju3socAeYq6oBW5QeEWNQ+daYIk5Pn8GxitsB70B5BmfhnyiTE2SfEKnq8hdIlLSjnCGAAEXarIKuOe4S7jh1BvYVDiEgBvtcrIM5eWa8KBOCXLKR/kD2Jzdm9IkYAKoN3eVUQJkM/CaIPeJkfKSosKpUEwQ+D/FSFuU2nYs8awB/lfhEYX1iuxS5FM1RHYR8EfHqXA9EtoFXA16lcJyRXcqain6CcZxcp4gCwSWE3NdjlNRB/Jz0IsVfQpYB9KoSJXCq4aY5RuOU7kq5rreV3Q5Jjc7kZTpAv8CfQ3kOYwttPl87wLfwMRnvqXgKhpU+FjRecC5qPy2Lxc2/iKh1wNdC57QaQr3ijHyp2NzQ8WY3maseobrnvwZI7avI2oFuqBRoSIiDBhbQv4+QzpFkgr8ZMIMfj3u+N4lStXbUf0+x3VNP+8yuzQH45GujZHA2vtOgadK71JEBX1QTMriSmCaQi3oMGMjlDpgo+NU1LSh0g802U1YwDaQTY5TES2zS/NBg4rscuKKaXgScR5GVc8HaQS2OE7F1gSfCwAFAlHFqnFMEH38Z7KAPEHqy52KVjX5Ztplkk90EKYqUgDY7l1nk08/PlGmapM8HuGPYgpLdGDzG7J0BU5c9Sw3LrqGYTs2dJosVRUrFGTQ+IPIKszvxIFcPs4v4tTjvs6qwkG9R5SKIvotpky8P1MWXqltW3FEeUK5U1Hlb0kfvurdgiR1EnC3aAdJslkV9+yWSw84gTlf/ilV+YOwtPM2y2BODsHc7E5Jky7CA6MP58PC4t5Wu7ejrUJyfI3Gh49MJsr8J/Qo4G4ROaTTW8UjS0F46uAv8/uTrqQ2K6/TZJlVmI8EO+HIUeXlQaO4d8wR5jq0N4lSV9O6yENvQ4F6RVXR+hgHjA8fGYceDw/ySPJehMO6Ui4RBRWL+YefzbAdG7jkxbsMWaYZlK6qiCVk9+9ERwZ12ZhbyHWHnMDnOYWgbnr54l2PfwMZWFVbf4fJqllHNzU88+Gjz6k+BYv0CIX7EI7olhOrsVcWNuzkFwuv4SsrF+CKlRZJqSrB3BwGTTiIYE4HVG9VagNBrjx0FnP3O7r3axOrusCFTJ34Z3+5+/CR4ap3/hPuBIW7hW4iSY/2LYWdOf34/YlX8O4+4zukgmcVFnQs0FyVJrH4/QFTuK8kE1RuwFS3edVf6j58ZDhR5j/hHoJyN8Ix3S7DiomzXF08hltPvILtuQNSJsvmsKCcgf1NxaB0OE6ViAh373cUvxp3nAkwV+1tlRvgLTLPPunDR59Ct6eL5D+hhwhyj4gc12OU4QWmry0aRX5jHUete82UbEuBtIK5ORSO3BcrGEzdMOFJknfvdzSzx59EdSg7U0gSkLlMnfi8v9R9+MhQiTJ/kTsO9G5MyfuepQeFqAT5y6T/4fWRR6csVWb3L0xP7ValLhDktwdO5ScTZrAzk0hSqUJ41l/mPnx0Dt3m9c5f5O4P3IXK8b0SLefZKzcXDGLu8d/hwE0f0L9+R9ICGsbbbZFTNNBTu1MgO3XZmpXHLw6axl37H0ND5qjbzRf4LxS/JWofgW2HBwL7iMlxL8B0f2xGo8Ab5U7lxuY3yuzS/ooeg6lSBKZYyGvlTqUfuN/1dNIt6vZ+mGrlMxMRUsJ60V4lDOliklEg4Ea4+uk5XLD8AVMtPcE5VJWswgKKxx9IIBRqV4pElVWFxVwzYQblww/CTZVce44kXZTvMHXi3C/Sgi6zw3mK9I9Z2ypodaK+25lxvaUh0CkKZwJTBUYBhWqEmFiNzxV4TOEix6msLbPDAvJTUx5uN6FGBO5T+H/x9TZ9ZJhEmb9IxwBzRWSmqqJNitZHcWtd87PRhYgXXtzsERZBAoIEBQkJkm0h2RZWtoVkWRCUDhOoKDQFgjx07AUc//ELjN38IVFpmeLYXM08p2gAVgok6Yrw9ND9uWbCDN4YMMzQcUaRJABrEJ7OACnJAimI2/QqaG15F29m2w4PA27FdHyMxYdldun3y52K/2QYSQ4DfgJ8Q5CB7Ukwih7mSY+1Zjz1UEFi+4kHFT0Kk4PvE2WmEmXBP3QkLndqkzszsjNCdFsT0eoI2uCavnjpEJwlEBCsLAvJtbDyAwQKgkhuAMlKgzg9FXx18WgeOuYCZj/1cwJutBWpBbKyyC0emFzE9qTIbVm5/GH/o/n92Mlsyc5nt3gsGZaNpywgYcOuHiWCAcBP1PTKCcYJ+h+W2eEbyp3KrjQNHKxQKqYJWezJDgB9FMgYoiyzS4epKStY2jHFTiBxXIai6qeGZipRFj6jw6M7o7dHtzadGtnciFsTRd2W85gyuama77pKtMk1XV62GPKUbI80+wWxCoNYuQEkIO1KlYKwaMIZnPruQiateaWVVJk9oB/BvNzk1wMsLx7BLw76Ev/YZyxRkZiMm0wjSa0C5jF1Yq+2GVC0VJArJGF0hRwNusO2w991Ot+jpvmYAZIHdYUyZXrK7NIs4MeGJNPCVlr219GeM6j5RNl5dbsiMrxxdf0dkarGUrc6uluV7bC9MVHaoYK6itZFceuiRLY0IiELKy9AYECQwIBQa9JUdts+LYWteQN46JgLOHTD22Q31YOIqRQUCJA3uLi1E8eTIjfn5HNfyRHcsf+xrM/rt/v9jJMi92yUf6Cm7mMvqty5AmfTRgiawilACfDRF2nTKXqUwPmJGM0UOdZ/GelXYvuHNAFPCpaf6tkXiTJ0R82w+g9qb3dromUacTtHkO1oGrH0aeyfLtEdLtEdTciGBgL5AQJFIQIDQkiO1fI6PLJ8fux0Xhk9mZM+fIaImNsPFeaT1a9wN0kb26nSYAV5auj+3HLAFF4cNMo4bFxPipSMfWxvA7mXqRN6uyDsRDXOibYwCpjZxURpJefljJAmxfQCoigBgf4L5ErgVceprPfpaS8hSrl26+DI5obfE+XM5qyWHhOapDVpRra7RHdEkKx6Av1DBIpDBPoFkaC1WyOpzs5n3tHnMWntcvKbalGxyBs8CCsY2E2Qrlj8e8Aw7tj/WB7f9yCqQzmZL0XuGY35IMt6V5o8Q4AzJAEZtHz2iaWobdvhBx2nsiva6K4GfcPYJFucaQPoW5khTVIgyNQEJLkNuNpxKl7waWlvIsrZW4tVuYWIntNtUmRHSbNBcTc1ENnSiFUQIFicRaAohJUTIAAsHz2ZJ0cczahP/s2gvCyOGth/twf+3X6DuX/0Efxt1EQ+yy0072e+FNl88+sQ7mDKhF7uEy2Dga/Eq5aKksCoMhk4DHi58yQU/UgInAk6JEayVGCLYq3LkFkapDAqwUpaDizzKWlvIsrZVfkCPwe+0asM2R5pukp0ZwS3OopsbCBYFCIwKETBJ8tYVFdPoGBfci2hbIdy2Jhi/j5qIg+OOpQ1+QPZHfLTrI5nvuUrCtyB6ooMuJjjgfGthSl5TuEoiWkHK9BfIWzb4WWOU9kp9bjCWajAeu+VqfNUBPSLfYh4TZff8tXtzEXaKYwye2tA4BLQi5DM9q+JmDAiVcWti9K4vgHeWs+IVx7Bqt2OKxa7XJi33eXsA2dw4yEn7CHJzDBppazPAf9EuI+ph/ZqAVyvQ+OZpkNji0vcAvwCU6SjhQJupE/2+YLsudwkAsomn472IqIEPRHkakSy+spNGsIExCJQV0uornq3Z90CGiNRNrnNnm43dgP3FaZci/JTpkzMhNS1A4ATE7z/MvAiiVvbjgO+9AXZc8niySI+He0lRCmzq4YBP0d0cF8St1RB3QAE6mko2UD1SAtxPWXQVeoHDyWy76g9GrZqJtSRTPH2tBq4Do1mSs3JU0CGxUmTEdByrzXrkwqft2QOCQFlXkfDvR1umu8nRHmC7pLdhTPtsNh2qWXSJr+YSNlGKbO3BkC/DUzpG9KWl6CgFhJshKEfYh3wPO6wD1h1SITogiAF6yM0FBez0T4fa8z+FDQ10lhXR1N9PW4kkvk2StVG4JfAPI47vNeZ3bbD/TGZMXEDph8DS7xf3geeB74a9/XpnmS5onPXUJol6Gh2q/4aUfjEcSrr2vtumR0uBoZ6MWIAWyGwsdwp17j7DHi21QECOTGf3wWsK3cqXdsOh7y87Zw4e+R+SQSU4WV26fg0hZx+XT+HpRbovsB4MZlOoxQGelwRte3wDowNeBWwUmBtuVOZlvOwzA7nAKNAQnvGTdaVe73b00WZHR6KaQcsQD3wSUfTY207PFhgcEyc4KZyp3JL6gwwu+oYgUpE9sl0gkTF+FclCoNWI+OeQ4avRLJqQS2TTvnxToLbm3ALBpEz4ScEc0Z55Kq40ShN9fU01tURbWpqKV1mRPk0BZOh8TvgRqZOrM2Ekbft8AyBCpD8uBm5HfQHjlPpepvxXODPEpMtY+R+rs6Hm//aQaeOt8l/IPD/YogyqvAX4KdOGxvatsP7CDwAHGn2mwKs94pQvO4dfzhwiqAzMCQySCA7pv7GToUro2hlEOtboNeC5MRNXghkQGv1W3eBpDuP/YHsOPFgGegpjrNgZ5pkkwVMVfi6ICcoOqrlvcWdxZgKPhN4BXgYWJxK4RGvV/o1ApeCNAtqO4HrFfdhx1mgaa65yQJ3ACO9eWsA7lL4reNURtJcP2OB+wUd17wGFP4FXJSSRCmzq7KByxXZRzKcJE2aqyD9NiIHPo+UvIrk7AS1wA2AgFY34EaiRAsEdAvW5mcJjDh/t/MnEAwSKCggKy+PSGMjTXV1RBobcaPR3iXNPRJuk1jW/6nr3siUCZlCkgGgLJ4kPQJwmknSw3PAh8AhMeq3KFpaA/cA2zuuIcnJwAjdc1xATwV+YyTEpKt8fzV20rw9pkQdAky27dK3BD1L4UfA4SDW7k+0NCEMMTZ8KhVOFmSUJjBRJl41UuCVVkvL2NkVKLNLxwA/Av1ac3GOtv20ghgJc6R56enAk2V2eE65U/nvFC77UEWGx7wxRNFLQCo9qTzVNWcB/wNyVOx8q9F8HwE+TnODnSbINPXu3Vs7RwADU7VRHg+EMzdKptkOaSFZdVjjlmKd8AescUuQ7F2GIL2y5xpV3B0NHumYG2rcuoxo3VrzewwRWpZFVk4OeQMGUFBcTF7//oRycpBAoKUtsyfsmd45rGAwkpWbe2dev343ZApJehgBfDmBfP9v0Nfi3t7o2SrjcThwbCeuQWL/Iy3ebnf1WoBKq++SBVwMco/AkRKnNif4fPOvVvzf26sKIGm+ukjVPgb4G0bCG9jBYc8FORN4pMwOh88uPSPp5b3m1kWBZaDx9zGeVokC7WIoMC1+vgWGY+Jz03nQZ3nmn/hjrRD4pH2iNNLkhYj0z2wpEmTIf7CmPoAc+ShS+PmeW4559GtdE9RFWkiF2lhFw6bFqEYT7qdmKTM7P5/8oiIKiovJjSXNZnNGVxNnzPHEssjKz4/m9R9wd7/Bg6+vOXhETYZNxAxgTLwRBKhwnMoWaqBjbFEVxLWoFSQPsD3ptBdsNgnfO03QG9KxB3pmhBoyHGV2+DDgvuSkoihUK3yi6AeKrlbT9liTSeXAXVGxTk12zk8rFyvI8yDx7ZOLgClp3sKRAvsnuI4gMMu2w+nEiY8AjoqffEWWljuVNakc6AiFL0sGEiQqqFpIdi0y9gXkoCVI3g4jF6jV8rErXtbOzgZwY1MRzc+mba8QKT6OUOEEVKNJ4+hFhGAoRDAUQvPzcaNRoo2NRBobiTQ14UYiXnHiNsgy0bETfV4EKxAgmJ1Ndl5eNBAKzQ2EQrO37Nsvowoj2HY4FygTU70nFp+B/CPJ197AdIecEff+LE+lW9Pb9+WZA2bETpg3S66nIja2bEGnu0BeWOgsVNsuvU+NNFoYN9FFwKSWY6UovAOyOq3LM0QxrIPq9hDgtwITE/zZVXgV5FEj/bEBaMDYlAerIZSzgenxJe1A9gW9pcwOry13Kt9Jsnc/AFaCTIsb6xNsO3xvKkWHPbV7JkiyntJTMWOTakbW0ebaYwdYdyq84Nl02piJa7dYqnxNhOKMtUUO/BTrsIWw7wrjvHGt5LpJQxStaUpISBrZScPnTxDM2w8J5KS2UpvtmcEgWXl5uK5riLOpiahHmm40iuu6e8gzGYl6e1EsC8uyCIRCBLOzCWZlYQUCrojcC8yu2rffjgwUTiZ6CzN+Jy/1bJGt4DgVu2y7tELhpDgveQlwMvDHTLgxaUmSW4BFwNOYQh41cdJVLegn3v29YNulL2vcE1uMGWsBe9o3NB/gjwp3psGSlqcyn9kBkrRALwU5KYH4sQv4P+AOx6n4PMHXPwFet+3SvwP/rXCd8RK3wEEKP7Ht8EWJow1kF7BUYZq0Iiv2TfEhWQQyvY2/l3hmnHUpku50ieNDhfdA3m2XKFVlpMDpmRUOZEhSRGHkG1iHVSL9NyaWIuO/uasJmtykJqqmHW/SuP1Vsounk2ZY226bpmVZBL0q6aqKui7quoYsm1+qe4jTcyA1E6QVCCCBwG7HkjmM/llVr9leUpxxJGmb2LpWBTDUeOXLHaeiLengKW8hj4ohpoCiZbYd/pvjVNZm0Kp7HeRHwAvt3FPswyAKROPGK5kn1q1I8bh7yI4OZmHpgSAX0jpMqQGTPfW79u7RcSp2nGGX3hGAnQq3SQvThCCorYbIn0jwXbXt8FLgh3HOv2b1NxWiPMK7j2QPuJCiJ9v2GeWOs8Btn3QTPuifd1V3QPsB5ydrnN2p90nSxEXKIU9jTXoI6bfRECTSNklGXdzqxuSqrwi4jTRsXEi0YRPxjp0OSSOe6hwIhQhlZ5OVm0t2fj45BQXkFhaS268fuYWF5BQUkJ2XRygnh0AohGVZzbUxFdUHBa7aXlK8LUNNXYNJ+DDV90Hbq4TzMeiSBO9PJrFK2FurbhVwkeNULHHSILNuF3Y7gFK7VEx/Hh2dQJqs9CTJlO5xgVOhnlT7QILLywe+7qW0JsIKkA/jyQ2YbttnWG0/nEsFo4nktbKotsQ0kCEp3Mp4kLFxY1GvyLMVFSZULfkFza7KAcIJ7E69S5LZu5AjHkcOXYhk1XkkmcK36yLQEGl37UVrV9Ow6Ymkjp2eu11V4EHgim0lxZncVW8aMWE+MWO5SJFN7UglEZByNZJM7IYpAsKl9hnS+6uOCMitjlP5BnsBBC0ETm1d2YmdAnc5TkVaTiiPVO/RxCrul4DRSfSvKuClBOR2XPvedx0AnBgXyL+FVnUE2J84B02yNSxoXGiWrgZ9c4++mRxjgUmZoXV7JJm7HTlmHtaBzyNW1KjbkhrnaHVjnBOHJHZCoXHLszTteNMMT2+kMppzzgOu3FZSvCVTN50nLZQlKICxHVhQYSSO9vAysDLB+18RU66tt7GWxPnpfZQoZYwgByUQTxOFcaWKVdC6f7znaDo0McE6LugzIPHS6wGJH7wtjjwB5JC4cy0zhL27WANigv1P9myQydZwHjC9NZHIMmIe9G0R5XRgSO9PrUeSeduQY+dhjX7de1tSVz4iLlqbosYkgkZ2Ub/hMdzGzSDW7tYWPXfHMl/hh9tKijdn+L5LVgDjlQRP92T3WpWEiA72pNXeXn/vgW7cW4hS4QAvJbGFyqroq8FQfodCmoxmoC9pnFThtdxtIy1TXieuAZ5Xgu/4pMRW+hUBPUlaRhMoyGLgKZDPEvBYWwWk9wOZGG+oA13ixOTTW0nU7ixghvR6rUmPJHN2Ikc/gjXizfRJslntbkzH7m0RrfkPdZ+Vo26j51TpGbJU5XHge9tLivvC5jw1PjxFwQV1HKciJUdMheMosFChKk7yycIUyujtpmAbIxrZi1q/6iha9zFS4INHH324M4t8FSbPOnYOAUa3YULZgEkRbEmVMN0LOUvArYEC4KS4i69SeBFkLaYAcizGYQpDJ8NkoWWRHzXXtbwlIyTGyBR1+24mSUFCdcjhDtbIN80gpkuSqiYkKJ02DrtV8OdorHqers2FSP6oV8UBLt9eUrQh07dbcwGM1oOqa4HFaR7uHRJXOD+R9LM1uhqRhRVP9KHipO2iOMFKjgKd1V62kDj9sFiSRNcYSZRnYtVlD4eS3Il8MK0dfW8Cq7zjPa0towHygBml9umSYA0HgROaU1Jj8BomDKpdojyCDgaydp1kJYi4Joh8v+UdkiTNMtfU1e54snQbqNvwGE3V79Kd9kpVRdFFfYUkPRwDHJlg4BZ7T/Z0VLc6oFzjQmm8NXgKProQkpsg/zzagYIc8ceoBUnU0C6fNh3CugwkPl5zKMlTWU8gxnTgOYOejnFCvUBMEWRPqj1RsBJlFu4Dcky8vALybHwBlVZEKbM3C8JUEelFlcdk3TBiBXLQM4i4HSNJQBsibcROtjf3Ftq4hbp1fyFav7577JWqiAlg/u72kqJP+8JW81IMbWlVJUjrPLW7I7USlxBXxMAL9i617XA/n+C6DKEkEmVnCwc3ea/4TRRKILHF/n018O+4ebeAE+NTWT3Hy4y4gh3bQJfGrMKPQeNrs44HJiQ4+eGtw6R0K+iL8R9sdQMqVr5ob6rdnl2yoAprwhNIdm2HSRIw0qTbme6JFtGaj6hb9xfcpu1IV5KlOc7TwKXbS4rX9KHNlrAAhqcCdahBlov1CZAo3fFIT3r10TWIzz5pNmhFO71xExjyBSxpW5uoB302QZjQsZ5kGYsDxWi7scd/C3hvz/Eq6436vWeTeo6fk0rtUyWGdAU4QVqnQK4gQTZZMMHtjlThwF7z4qhxnMjYF5GidZ0jSVeNI6dTGoXJ5m3a/m/q1j1I7qhvYgULUHW7oq/aP4FvbyspXt3HNtuMRDYkk50hN5bZpR2iSoUEYStSoGipbZ/xbAoZFj5SMEbFzRlqfnQ2XjqhIV9Tyh6S541k2MIbX4JxwsSaor7k1QCNxWKndR3M5zE21yExd3mSEPo9UO19pj9wXGuuZ2kToZr2iRIORhnUW/GT2lxLsuRVTwW3Ou5HaYpCQxdUzPeqAzVufRGsLPJGfAMJ5neKLFV5XuCybSXFH/elXWbbpbmgZyZORJDxtBkO0v5OS4Ivg4wgzsDuo2O7QluPdYDOtK72VHpiCjHHrPQm2ifLD0DfAYkNC8rBZOn8w3EWqG2X5gAzY8UmhR0gzyZYSR966nysfftQzIO4WS0fR9yDWZEa4LlFznxtV/UGDpPOD1qnhHfZdyVSUEV7aYntHq4hCtEuUpObyXLLEmrX/Rm3aQciHXPwqPIScOm2kuIP+94+04mkXw6rs9ifuJAQHx2ev/rWGrIGQHM7edw80ESVfGq9VsptPSCrvVbGsZoEwPEgXrykjgGNNwmuBN5NoM7XGfW7xY0OxDiCmnG8V2k+FqtInPwQR5TXVoUQDu2t1D0FJNCEDPkQmh04nVoS0fTCglImy6XUrr2XaMPGPQ69FAnTI8mLtpcUvdfXtpht4uFaFcDobnjSa5lteq346By2JpA+ArSuAJTuLA1qXd3enE/RNu1f5SaD61lDqi1wiCf5gak0NLSFkgz/VAkkKzn4HDEV7T3inWHb4VzbDmdjqgURd7wXJUkVfCuOqQagjO3VaQw1QP7WzkuTqinkdneQLIGmbcup+eg2mqpX7n6/LSePmn48y4GL+yJJejeZpABGj+A4EnsufaSHT+IlPC+64MDT7JM6M7EHYHqWt1jzwCcVzsJUpIi3ae1EGQhM9eIdT27pPddq0Gcqyh9Pcmz9IDZX28ORmNTsEa2dQtoI+myyBmfxKvZwejl+EhWvdQO7XXIdQlTRpm6y/XsOnmjNh9R8dCs5Q08ja/BJWMH+MeaYPV08vOfZ64peur2k6N0+vMmSFMDQ90CeouvSlw5VmBFXd7lY4fRS+/TXU9x4PhLjP8AOWmsFx2ZRkE8aPWv2aBrhAOhxEqe6CRIxBYlTglckg8OkhRSoX1KTwDAp7vPvJlOTjfpdWWPb4acVjQ0nGuQ9cLcpMqylRCmfCLye7HjBOB1nDMYb1DvyCkBTLrppLFK8FqQTTBlxzavbLtYQoDZto279PJp2vEH2kFkE+x2KFSyMEdYVt3HLZ2j08h0HHvRmX91dXirhmQkKYLjAnY5TcWfXnat0kvf0H9hydegZgnUnnc8i+QJDPvYkt0kJpK0j8Cp6p4mxtLT/NUuUn5Nizr/jVLi2HV4CchEtunNyOHAOMc3IvNWwxMXd3s5hlxLjTfeqqH8F2CatvPy6XJGkyR7xqvcB9JYjB0BMDKV+OO11bcp5oTOH0ohr4ie7/ZotUJdI9TvUrL6LXR/+ktpP/0pD1XM0bltG3Yb5VK+a03/HW5fN4LGZuX14hx2QaDMYVU6e6uJzvQ28lOD98SQosOojrQW7AxOWFiekSH/g22UmqDtllNmlQeAiYoovx+BlNJ2WHtIqdRCTTn1pnIO5BmRxCprFeyBvx93ndFOMPP5hL0u8FMh2iHL2FgHGSm/WVVMBcV/XbSMvlJyd56nKAu2oNhdxe6qOhZEuJQBuE9Fdq2j4rJza1XdR89Gt1K+fh1v3aR4SvBa4lvmz8vvoDjs1cX8WXWxq93UdkqU0esHBZWk2jfLRYmwdBeYrfJ5AoysDvl1Wmtr4ltpnCnCOIN+S1h7TOkH+5lQk76WeYC2tB/1X3JyHBBkaR2zvq3mYtok6inYleCgUtq53qZ+bVMrksGI2ezZCSW9OoqJvoFzMr/Pfjox7fB2mP6/TIbKMaNd6vNMhTE/KNDZzMb8L2YhcBfyc+bMK+tLmSlYAQ6EOpNxxKqPdcNpnSNyX+SQSdt7zkQZWAA8nWMA5wPUI15TZ4UHtmEcKLKIXK/yOBOY6RZ8C/Wd6JF4ZAXmmrSB13a1Sy9b2jveU8ycFnjHxlm3iDaDNh32wJdMyvJcIEpQ3gW8xp3h33md0/Lz1gXf/67uouMCZaVUNcnsziSOpxz4EfB+wmD/zes5aXN1HNlaSAhi8gak92R1YBzxJ6+pBzemTH/h812GJPWLbpbd5zb3iYhOlEPSnmIK3j3rz+5kgDYqGMJkxRyr6VZAZAtkJ9vNaYE5564yZVLDMSHiSxKmstSBPe5JxKngX41Campx65VmTSpmKRKkUowzqJVFyJXBxLEnuJstD5q0HvqvwsKYjWroZ6hhVgsDlwC94bGb/TN9UbRTAUNDKAkLbu2kzu0aboDpOFRNM7+9Cn/I6Nb6rgas0rnCuN8oBr5XsbZhaBEsxcY5LxUj69wlyGolJsgq42m3Dg9zOBvkYpK22Gx+i+kbq283dCfpPTfp32U4KDqxYZ84Q0mjy3mW8obwHcglzil9N9pno+Ic/A/0e6F9QdVM5KJkaQCKeJK98B7iZx2YWZfieGgmSoACGbAQWPeQ81o0jra8laU9wNF1fL1Xoe5C29NMUyPJZ4JJk0rmYfwME2R8YL8gBXmC5leS0G4AfKPpIpVPZoXXhFbV4VpPf8HMIKfeQqnAWqDHjaBLtTd8F3k+HKIdh8it7kiTfN5Jk0cvtfTY6ft4WgSuAP6dElhm/xCUA8r+I3ML8WcUZfKWHg+6X4P2lIKu6V+qprAZxEmyWQhJ74JMFH0sK7OEmIZ7ueBBYnT2PkrDrYPPa0tTHuOIpha8pPKqtM2NSvZaIGknzPCXw14rOFy95DhPWE48G4B+OU5nu8VeAvJeEeJeI6s50Jmw47bev7UqSXOWR5Iupficyfl6VwpUK96m2URZKpG/IB4IFXADcwmOzBmXoRa4DeV9ha8zrfeBex6lo7IELqFBYGnPubSbeTdYkWiLAywqfm8+xTU3l7SXEqfAJ8AnwWtx9rqNjcYVtYW38eTyJ5rU0ycnFBGhvjLnXTaZIhNSlqYa/BXwT+LrC3xXWKRrRds6vsElN3+6LgHMcp2JphVPeFQ+Wt4F7Y+5tqzenDyjyYtpcY9TruxT9eM8aokrRFxQeKq9oX/rdQyezq24W4cqeYBhFP0a5iDnFSzry/cA75w4QuEHh2yKJ4z6jm2rQLXW923I2rSHRhxGu4KzFGdUrx7ZLLUyM3ICYt7cqsq4idYN6Z69hiKfxNE9mPfBxIqI21Y0Y49nPFIiCrnbacSx4vaKHAvvEvF0DrG4rvi5dlNpfFaEx/jzbFF1XkaakZHLfpflewRTOXZ1qv6Ik45AFlICOBzkYGOG1h80yDyKpNmE88gGwEvQjx6ms7YY5z4mZRyNNqq5xKirrOna8cMCsY+m/R4PQzxynMqXkBbPwrq2yUP4kIud3vySpa4BLmFP8dGeOE3jn3EJEfwZc7jVOb6lHVdXhfl5DZ3PGexjzge9z1tPr8eEjQ1BqnxHwuEIrnAXRL+IYiCdNZgOOiHRrfxKPJC9lTnGXZHJY7/5XgSjXg3xfpGUtPHdnA+76XT0fS9kFqibwXc56+lN/i/rwkRlotknm0M2ls1R1HXBZV5EkgHvIvF0gPwN+q0qLxkYSCrRThD5zH+Cgd/HYzFH+8vThI7OIMpduLIahygaQy5lT/GRXHzs6/uEalBtBb0J1j/0iZEHQ6qvzcgZwD4/N9DNQfPjIIKLMB+mWtDpVPgO+R5VUdtdNRCc8XAf8GpizmywDguQE+ui0CCZ2Ue5l/qwD/WXqw0dmEGVh50vBJyTJjcDl1MvjzB3YrR7S6Ph5DcBvFW5Q1VoRQfJDu6uS902u5ETgHubPGucvVR8+ep0opdBLiO9CktTNwA+IyuPcMrBHmCpiyPJ3INcC1ZIXMip438Z0VP/IYzPH+8vVh49eJUrth0l47yqSrEK4AqKP8quBPSrORcfPaxSV21W5mqzADin06sz26ZrYcjwi9zN/1uH+kvXho/dU7350UcFeVa0CrsDlr8wZ3CuphpEJf4u4ovcgXG31z95BKNC3mdI4748F7mP+rCP9ZevDRy+p3tIFwYaquhW4EtUHuam4V/Ox9ZB5EYU/kh28Svpnbe2ztsqWOBL0j8yfebS/dH346HnVu1A7KXGpsgO42pDkoIwoWuEe/HDEKsq7X/KzfkB2YHPfV8EB5AiU+3lspt8SwYePHla9CzsjTqpSDczGlQe4aVBGpTg1DbsvmnP06IckJ/g9AtbnewFTgshE4D4emzXdX8I+fPSc6p3fUc1blZ3ANbjczS+LIpl4k7VyiwYPHPh3LL6PyMa9QAUHkYMQ7mX+rBP8ZezDR3cT5Q/WCmheR76syi7gOpS5mUqSuyXLUX9RqmoeAb0UYQ17R2foA1Du5bGZJ/tL2YeP7iTK3FwB0iZKRWsRvQH4AzdlNknuxoUvKmctrkD5JqaR2V4gWTIWuJf5M7/iL2cfPrqLKK2AYHK90yHJOuAXwG3MKWrqc3d99uKlwLmgj6Aa6fOzKFICMpf5s0p588viL2sfPrqaKE0v1ZSJUlXrUG5E+R2/KG7os3d+9uIPMJWZr0J1bZ+fSWUEcCcfuTblJ/lk6cNH1xIlQUz14hRIkgbgl8DvmNOHSXIPWe7k7MX/B1KG6oOoVvfZezHUuC9wJ9HAOTx8suUvbx8+uowoNQDaLlGq0gj8FpXf7hUk2YIwn34DuBg4F9WFqNb23ZuRYcDthOQbzJ/lk6UPH10kUVrtSZQeSd6CchM3FdXtlSNx9uJ6zl68CDgX+C9UH0d1W9/kShmMyO+BC3yy9OGjKxS22VUDgSdFZFISkmzySPJGbiqq/cKMzGMzczC9o88ETjPeZQn2sbvYiuqPUP7EVxdH/eXuw0dHZY/ZW4uBp5DWDeUVjaDcCnI9c4pqvrCj9NjMkcA04DRgKjDK9OXuA1DdjnAtyD2c9XSTv+R9+OgYUQ4GFiMcFkeSUeAPwDX8orjaHyrgsZlBQ5JMQjkRU9FnP6AwwxuYVQPXI9zBmT5Z+vDRAdV76z7AP0UYv0cI2U2S1zKneIc/TAnwyElCIDAIZZynoh8LjAdGAgNArIxpk6uAUAP8FPQOzlrc6E+gDx/pEeW+wGIRDo4hyXuAq5lTvNMfolSlzZMDIEXAKOAgjzQPwTRx3wfTvC3bkGcvMKgCojXAjbjcylcX1/uT5sNH6kQ5yiPKA1FcRR8ArmRO8XZ/eDqtqoc8ghzqSZolnqo+ChPzONhInxRgWgYH2M2j3USmujur6mbOXuyr4T58pIAgaCNQo4qCPIjKj7mpyCfJroAhoi3e65046TMXoRBlIFDskeYQYAjKYNBiYCCm+nwhJh8/F8jGhHOFPGK1gABC6wpyiQhXJBfV84B7gc3+JPnwkQpRCptRfgTsDzzKTUVb/WHpbgL9ZxTY5b0+S/iZR2dYiBXyCDHHe+V6r7y4n7kxn8mJIdMs0BC6m1SDHrE+D2zzJ8KHDx8+EuF3fh64Dx/p4v8DQ+rb2tHCun0AAAAldEVYdGRhdGU6Y3JlYXRlADIwMjQtMTEtMDlUMTg6NTQ6NTkrMDA6MDBdCzWmAAAAJXRFWHRkYXRlOm1vZGlmeQAyMDI0LTExLTA5VDE4OjU0OjU5KzAwOjAwLFaNGgAAAABJRU5ErkJggg==;" vertex="1" parent="bwoUUbvKXOS5pOX4SVc_-68">
          <mxGeometry x="327.05" y="10" width="155.9" height="60" as="geometry" />
        </mxCell>
        <mxCell id="bwoUUbvKXOS5pOX4SVc_-78" value="" style="group" vertex="1" connectable="0" parent="bwoUUbvKXOS5pOX4SVc_-79">
          <mxGeometry x="31.05000000000001" y="80" width="1030" height="410" as="geometry" />
        </mxCell>
        <mxCell id="bwoUUbvKXOS5pOX4SVc_-59" value="" style="group" vertex="1" connectable="0" parent="bwoUUbvKXOS5pOX4SVc_-78">
          <mxGeometry x="810" width="220" height="200" as="geometry" />
        </mxCell>
        <mxCell id="bwoUUbvKXOS5pOX4SVc_-72" value="" style="group" vertex="1" connectable="0" parent="bwoUUbvKXOS5pOX4SVc_-59">
          <mxGeometry width="220" height="200" as="geometry" />
        </mxCell>
        <mxCell id="bwoUUbvKXOS5pOX4SVc_-54" value="" style="whiteSpace=wrap;html=1;" vertex="1" parent="bwoUUbvKXOS5pOX4SVc_-72">
          <mxGeometry y="40" width="220" height="160" as="geometry" />
        </mxCell>
        <mxCell id="bwoUUbvKXOS5pOX4SVc_-56" value="&lt;b&gt;DATA VISUALIZATION&lt;/b&gt;" style="rounded=0;whiteSpace=wrap;html=1;" vertex="1" parent="bwoUUbvKXOS5pOX4SVc_-72">
          <mxGeometry width="220" height="40" as="geometry" />
        </mxCell>
        <mxCell id="bwoUUbvKXOS5pOX4SVc_-70" value="" style="group" vertex="1" connectable="0" parent="bwoUUbvKXOS5pOX4SVc_-72">
          <mxGeometry x="63.25" y="80" width="104.5" height="114.28999999999999" as="geometry" />
        </mxCell>
        <mxCell id="bwoUUbvKXOS5pOX4SVc_-21" value="" style="image;aspect=fixed;html=1;points=[];align=center;fontSize=12;image=img/lib/azure2/power_platform/PowerBI.svg;" vertex="1" parent="bwoUUbvKXOS5pOX4SVc_-70">
          <mxGeometry x="26.75" width="51" height="68" as="geometry" />
        </mxCell>
        <mxCell id="bwoUUbvKXOS5pOX4SVc_-64" value="POWER BI" style="text;html=1;align=center;verticalAlign=middle;whiteSpace=wrap;rounded=0;fontStyle=1" vertex="1" parent="bwoUUbvKXOS5pOX4SVc_-70">
          <mxGeometry y="80" width="104.5" height="34.29" as="geometry" />
        </mxCell>
        <mxCell id="bwoUUbvKXOS5pOX4SVc_-58" value="" style="group" vertex="1" connectable="0" parent="bwoUUbvKXOS5pOX4SVc_-78">
          <mxGeometry x="810" y="210" width="220" height="200" as="geometry" />
        </mxCell>
        <mxCell id="bwoUUbvKXOS5pOX4SVc_-57" value="&lt;b&gt;MODELS&lt;/b&gt;" style="rounded=0;whiteSpace=wrap;html=1;" vertex="1" parent="bwoUUbvKXOS5pOX4SVc_-58">
          <mxGeometry width="220" height="40" as="geometry" />
        </mxCell>
        <mxCell id="bwoUUbvKXOS5pOX4SVc_-71" value="" style="group" vertex="1" connectable="0" parent="bwoUUbvKXOS5pOX4SVc_-58">
          <mxGeometry y="40" width="220" height="160" as="geometry" />
        </mxCell>
        <mxCell id="bwoUUbvKXOS5pOX4SVc_-55" value="" style="whiteSpace=wrap;html=1;" vertex="1" parent="bwoUUbvKXOS5pOX4SVc_-71">
          <mxGeometry width="220" height="160" as="geometry" />
        </mxCell>
        <mxCell id="bwoUUbvKXOS5pOX4SVc_-52" value="" style="sketch=0;points=[[0,0,0],[0.25,0,0],[0.5,0,0],[0.75,0,0],[1,0,0],[0,1,0],[0.25,1,0],[0.5,1,0],[0.75,1,0],[1,1,0],[0,0.25,0],[0,0.5,0],[0,0.75,0],[1,0.25,0],[1,0.5,0],[1,0.75,0]];outlineConnect=0;fontColor=#232F3E;fillColor=#01A88D;strokeColor=#ffffff;dashed=0;verticalLabelPosition=bottom;verticalAlign=top;align=center;html=1;fontSize=12;fontStyle=0;aspect=fixed;shape=mxgraph.aws4.resourceIcon;resIcon=mxgraph.aws4.bedrock;" vertex="1" parent="bwoUUbvKXOS5pOX4SVc_-71">
          <mxGeometry x="70" y="30" width="78" height="78" as="geometry" />
        </mxCell>
        <mxCell id="bwoUUbvKXOS5pOX4SVc_-51" value="" style="group" vertex="1" connectable="0" parent="bwoUUbvKXOS5pOX4SVc_-78">
          <mxGeometry x="200" y="10" width="400" height="400" as="geometry" />
        </mxCell>
        <mxCell id="bwoUUbvKXOS5pOX4SVc_-37" value="" style="group" vertex="1" connectable="0" parent="bwoUUbvKXOS5pOX4SVc_-51">
          <mxGeometry y="45.71428571428571" width="240" height="354.2857142857143" as="geometry" />
        </mxCell>
        <mxCell id="bwoUUbvKXOS5pOX4SVc_-28" value="" style="whiteSpace=wrap;html=1;" vertex="1" parent="bwoUUbvKXOS5pOX4SVc_-37">
          <mxGeometry width="240" height="354.2857142857143" as="geometry" />
        </mxCell>
        <mxCell id="bwoUUbvKXOS5pOX4SVc_-31" value="" style="whiteSpace=wrap;html=1;" vertex="1" parent="bwoUUbvKXOS5pOX4SVc_-37">
          <mxGeometry y="182.85714285714283" width="240" height="171.42857142857142" as="geometry" />
        </mxCell>
        <mxCell id="bwoUUbvKXOS5pOX4SVc_-32" value="" style="group" vertex="1" connectable="0" parent="bwoUUbvKXOS5pOX4SVc_-37">
          <mxGeometry x="72" y="22.857142857142854" width="72" height="122.85714285714285" as="geometry" />
        </mxCell>
        <mxCell id="bwoUUbvKXOS5pOX4SVc_-11" value="&lt;div&gt;EXTRACT&lt;/div&gt;" style="text;html=1;align=center;verticalAlign=middle;whiteSpace=wrap;rounded=0;fontStyle=1" vertex="1" parent="bwoUUbvKXOS5pOX4SVc_-32">
          <mxGeometry y="88.57142857142857" width="72" height="34.285714285714285" as="geometry" />
        </mxCell>
        <mxCell id="bwoUUbvKXOS5pOX4SVc_-40" value="" style="sketch=0;aspect=fixed;pointerEvents=1;shadow=0;dashed=0;html=1;strokeColor=none;labelPosition=center;verticalLabelPosition=bottom;verticalAlign=top;align=center;fillColor=#00188D;shape=mxgraph.mscae.enterprise.import_generic" vertex="1" parent="bwoUUbvKXOS5pOX4SVc_-32">
          <mxGeometry x="16" y="11.428571428571427" width="40" height="50" as="geometry" />
        </mxCell>
        <mxCell id="bwoUUbvKXOS5pOX4SVc_-34" value="" style="group" vertex="1" connectable="0" parent="bwoUUbvKXOS5pOX4SVc_-37">
          <mxGeometry x="12" y="205.7142857142857" width="72" height="101.71428571428571" as="geometry" />
        </mxCell>
        <mxCell id="bwoUUbvKXOS5pOX4SVc_-12" value="" style="html=1;verticalLabelPosition=bottom;align=center;labelBackgroundColor=#ffffff;verticalAlign=top;strokeWidth=2;strokeColor=#0080F0;shadow=0;dashed=0;shape=mxgraph.ios7.icons.settings;" vertex="1" parent="bwoUUbvKXOS5pOX4SVc_-34">
          <mxGeometry x="6" width="60" height="57.14285714285714" as="geometry" />
        </mxCell>
        <mxCell id="bwoUUbvKXOS5pOX4SVc_-15" value="TRANSFORM" style="text;html=1;align=center;verticalAlign=middle;whiteSpace=wrap;rounded=0;fontStyle=1" vertex="1" parent="bwoUUbvKXOS5pOX4SVc_-34">
          <mxGeometry y="67.42857142857143" width="72" height="34.285714285714285" as="geometry" />
        </mxCell>
        <mxCell id="bwoUUbvKXOS5pOX4SVc_-36" value="Data Cleaning&lt;br&gt;&lt;br&gt;Feature Engineering&amp;nbsp;&lt;br&gt;&lt;br&gt;Create New Tables&amp;nbsp;" style="whiteSpace=wrap;html=1;" vertex="1" parent="bwoUUbvKXOS5pOX4SVc_-37">
          <mxGeometry x="108" y="182.85714285714283" width="132" height="171.42857142857142" as="geometry" />
        </mxCell>
        <mxCell id="bwoUUbvKXOS5pOX4SVc_-38" value="&lt;b&gt;ETL (BUSINESS LOGIC)&lt;/b&gt;" style="rounded=0;whiteSpace=wrap;html=1;" vertex="1" parent="bwoUUbvKXOS5pOX4SVc_-51">
          <mxGeometry width="400" height="45.71428571428571" as="geometry" />
        </mxCell>
        <mxCell id="bwoUUbvKXOS5pOX4SVc_-50" value="" style="group" vertex="1" connectable="0" parent="bwoUUbvKXOS5pOX4SVc_-51">
          <mxGeometry x="240" y="45.71428571428571" width="160" height="354.2857142857143" as="geometry" />
        </mxCell>
        <mxCell id="bwoUUbvKXOS5pOX4SVc_-29" value="" style="whiteSpace=wrap;html=1;" vertex="1" parent="bwoUUbvKXOS5pOX4SVc_-50">
          <mxGeometry width="160" height="354.2857142857143" as="geometry" />
        </mxCell>
        <mxCell id="bwoUUbvKXOS5pOX4SVc_-13" value="" style="verticalLabelPosition=bottom;html=1;verticalAlign=top;align=center;strokeColor=none;fillColor=#00BEF2;shape=mxgraph.azure.cloud_services_configuration_file;pointerEvents=1;" vertex="1" parent="bwoUUbvKXOS5pOX4SVc_-50">
          <mxGeometry x="55" y="34.285714285714285" width="50" height="68.57142857142857" as="geometry" />
        </mxCell>
        <mxCell id="bwoUUbvKXOS5pOX4SVc_-41" value="" style="verticalLabelPosition=bottom;html=1;verticalAlign=top;align=center;strokeColor=none;fillColor=#00BEF2;shape=mxgraph.azure.cloud_services_configuration_file;pointerEvents=1;" vertex="1" parent="bwoUUbvKXOS5pOX4SVc_-50">
          <mxGeometry x="55" y="142.85714285714286" width="50" height="68.57142857142857" as="geometry" />
        </mxCell>
        <mxCell id="bwoUUbvKXOS5pOX4SVc_-42" value="" style="verticalLabelPosition=bottom;html=1;verticalAlign=top;align=center;strokeColor=none;fillColor=#00BEF2;shape=mxgraph.azure.cloud_services_configuration_file;pointerEvents=1;" vertex="1" parent="bwoUUbvKXOS5pOX4SVc_-50">
          <mxGeometry x="55" y="251.42857142857142" width="50" height="68.57142857142857" as="geometry" />
        </mxCell>
        <mxCell id="bwoUUbvKXOS5pOX4SVc_-18" value="LOAD" style="text;html=1;align=center;verticalAlign=middle;whiteSpace=wrap;rounded=0;fontStyle=1" vertex="1" parent="bwoUUbvKXOS5pOX4SVc_-50">
          <mxGeometry x="50" width="60" height="34.285714285714285" as="geometry" />
        </mxCell>
        <mxCell id="bwoUUbvKXOS5pOX4SVc_-47" value="CUSTOMER DATA" style="text;html=1;align=center;verticalAlign=middle;whiteSpace=wrap;rounded=0;fontStyle=1" vertex="1" parent="bwoUUbvKXOS5pOX4SVc_-50">
          <mxGeometry y="211.42857142857142" width="160" height="34.285714285714285" as="geometry" />
        </mxCell>
        <mxCell id="bwoUUbvKXOS5pOX4SVc_-48" value="RISK DATA" style="text;html=1;align=center;verticalAlign=middle;whiteSpace=wrap;rounded=0;fontStyle=1" vertex="1" parent="bwoUUbvKXOS5pOX4SVc_-50">
          <mxGeometry y="320" width="160" height="34.285714285714285" as="geometry" />
        </mxCell>
        <mxCell id="bwoUUbvKXOS5pOX4SVc_-49" value="SALES DATA" style="text;html=1;align=center;verticalAlign=middle;whiteSpace=wrap;rounded=0;fontStyle=1" vertex="1" parent="bwoUUbvKXOS5pOX4SVc_-50">
          <mxGeometry y="108.57142857142857" width="160" height="34.285714285714285" as="geometry" />
        </mxCell>
        <mxCell id="bwoUUbvKXOS5pOX4SVc_-60" value="Analyze" style="sketch=0;outlineConnect=0;fontColor=#232F3E;gradientColor=none;fillColor=#01A88D;strokeColor=none;dashed=0;verticalLabelPosition=bottom;verticalAlign=top;align=center;html=1;fontSize=12;fontStyle=0;aspect=fixed;pointerEvents=1;shape=mxgraph.aws4.textract_analyze_lending;" vertex="1" parent="bwoUUbvKXOS5pOX4SVc_-78">
          <mxGeometry x="660" y="82.5" width="35" height="35" as="geometry" />
        </mxCell>
        <mxCell id="bwoUUbvKXOS5pOX4SVc_-63" value="Machine Learning" style="sketch=0;outlineConnect=0;fontColor=#232F3E;gradientColor=none;fillColor=#01A88D;strokeColor=none;dashed=0;verticalLabelPosition=bottom;verticalAlign=top;align=center;html=1;fontSize=12;fontStyle=0;aspect=fixed;pointerEvents=1;shape=mxgraph.aws4.textract_analyze_lending;" vertex="1" parent="bwoUUbvKXOS5pOX4SVc_-78">
          <mxGeometry x="680" y="220" width="35" height="35" as="geometry" />
        </mxCell>
        <mxCell id="bwoUUbvKXOS5pOX4SVc_-75" value="" style="group" vertex="1" connectable="0" parent="bwoUUbvKXOS5pOX4SVc_-78">
          <mxGeometry y="10" width="160" height="400" as="geometry" />
        </mxCell>
        <mxCell id="bwoUUbvKXOS5pOX4SVc_-69" value="" style="group" vertex="1" connectable="0" parent="bwoUUbvKXOS5pOX4SVc_-75">
          <mxGeometry width="160" height="400" as="geometry" />
        </mxCell>
        <mxCell id="bwoUUbvKXOS5pOX4SVc_-23" value="" style="whiteSpace=wrap;html=1;" vertex="1" parent="bwoUUbvKXOS5pOX4SVc_-69">
          <mxGeometry y="40" width="160" height="360" as="geometry" />
        </mxCell>
        <mxCell id="bwoUUbvKXOS5pOX4SVc_-26" value="&lt;b&gt;SOURCE SYSTEMS&lt;/b&gt;" style="rounded=0;whiteSpace=wrap;html=1;" vertex="1" parent="bwoUUbvKXOS5pOX4SVc_-69">
          <mxGeometry width="160" height="40" as="geometry" />
        </mxCell>
        <mxCell id="bwoUUbvKXOS5pOX4SVc_-74" value="" style="group" vertex="1" connectable="0" parent="bwoUUbvKXOS5pOX4SVc_-75">
          <mxGeometry y="130" width="160" height="135" as="geometry" />
        </mxCell>
        <mxCell id="bwoUUbvKXOS5pOX4SVc_-25" value="" style="group;" vertex="1" connectable="0" parent="bwoUUbvKXOS5pOX4SVc_-74">
          <mxGeometry x="37.5" width="85" height="110" as="geometry" />
        </mxCell>
        <mxCell id="bwoUUbvKXOS5pOX4SVc_-73" value="" style="group" vertex="1" connectable="0" parent="bwoUUbvKXOS5pOX4SVc_-25">
          <mxGeometry width="85" height="110" as="geometry" />
        </mxCell>
        <mxCell id="bwoUUbvKXOS5pOX4SVc_-5" value="" style="verticalLabelPosition=bottom;html=1;verticalAlign=top;align=center;strokeColor=none;fillColor=#00BEF2;shape=mxgraph.azure.cloud_services_configuration_file;pointerEvents=1;" vertex="1" parent="bwoUUbvKXOS5pOX4SVc_-73">
          <mxGeometry x="17.5" width="50" height="60" as="geometry" />
        </mxCell>
        <mxCell id="bwoUUbvKXOS5pOX4SVc_-20" value="INPUT&amp;nbsp; (CSV)&lt;div&gt;&lt;br&gt;&lt;/div&gt;" style="text;html=1;align=center;verticalAlign=middle;whiteSpace=wrap;rounded=0;fontStyle=1" vertex="1" parent="bwoUUbvKXOS5pOX4SVc_-73">
          <mxGeometry y="80" width="85" height="30" as="geometry" />
        </mxCell>
        <mxCell id="bwoUUbvKXOS5pOX4SVc_-46" value="SUPER STORE&amp;nbsp;&lt;br&gt;SALES DATA" style="text;html=1;align=center;verticalAlign=middle;whiteSpace=wrap;rounded=0;fontStyle=1" vertex="1" parent="bwoUUbvKXOS5pOX4SVc_-74">
          <mxGeometry y="105" width="160" height="30" as="geometry" />
        </mxCell>
        <mxCell id="bwoUUbvKXOS5pOX4SVc_-62" style="edgeStyle=orthogonalEdgeStyle;rounded=0;orthogonalLoop=1;jettySize=auto;html=1;" edge="1" parent="bwoUUbvKXOS5pOX4SVc_-78" source="bwoUUbvKXOS5pOX4SVc_-47" target="bwoUUbvKXOS5pOX4SVc_-55">
          <mxGeometry relative="1" as="geometry" />
        </mxCell>
        <mxCell id="bwoUUbvKXOS5pOX4SVc_-61" style="edgeStyle=orthogonalEdgeStyle;rounded=0;orthogonalLoop=1;jettySize=auto;html=1;" edge="1" parent="bwoUUbvKXOS5pOX4SVc_-78" source="bwoUUbvKXOS5pOX4SVc_-49" target="bwoUUbvKXOS5pOX4SVc_-54">
          <mxGeometry relative="1" as="geometry" />
        </mxCell>
        <mxCell id="bwoUUbvKXOS5pOX4SVc_-66" style="edgeStyle=orthogonalEdgeStyle;rounded=0;orthogonalLoop=1;jettySize=auto;html=1;entryX=0.035;entryY=0.49;entryDx=0;entryDy=0;entryPerimeter=0;" edge="1" parent="bwoUUbvKXOS5pOX4SVc_-78" source="bwoUUbvKXOS5pOX4SVc_-23" target="bwoUUbvKXOS5pOX4SVc_-28">
          <mxGeometry relative="1" as="geometry" />
        </mxCell>
      </root>
    </mxGraphModel>
  </diagram>
</mxfile>
